<svg viewBox="0 0 24 24" xmlns="http://www.w3.org/2000/svg">
  <circle cx="12" cy="12" r="10" fill="#A3E635" />
  <path
    d="M12 6c-2.8 0-5 1.8-5 4 0 2.2 2 4 4.5 4.02l.5.02 2 1.15c.46.26 1-.07 1-.58v-1.72C16.8 12.74 18 11.37 18 10c0-2.2-2.2-4-6-4Z"
    fill="#FFFFFF"
  />
  <path
    d="M9 10.5V12c0 .55.45 1 1 1h1v2c0 .55.45 1 1 1h1.5c.43 0 .81-.28.93-.69l.57-2.06h.96c.83 0 1.5-.67 1.5-1.5V10c0-.83-.67-1.5-1.5-1.5h-2V8a1 1 0 1 0-2 0v.5h-.8C9.67 8.5 9 9.17 9 10.5Z"
    fill="#FFFFFF"
  />
</svg>
